<svg width="40" height="40" viewBox="0 0 40 40" fill="none" xmlns="http://www.w3.org/2000/svg">
  <!-- Background circle for Q -->
  <circle cx="15" cy="20" r="10" stroke="#3B82F6" stroke-width="2.5" fill="none"/>
  
  <!-- Q letter tail -->
  <path d="M21 26L25 30" stroke="#3B82F6" stroke-width="2.5" stroke-linecap="round"/>
  
  <!-- Checkmark inside Q (representing Quality) -->
  <path d="M11 20L14 23L19 17" stroke="#60A5FA" stroke-width="2" stroke-linecap="round" stroke-linejoin="round"/>
  
  <!-- A letter design -->
  <path d="M28 30L31 12L34 30" stroke="#3B82F6" stroke-width="2.5" stroke-linecap="round" stroke-linejoin="round"/>
  
  <!-- A letter crossbar -->
  <line x1="29.5" y1="24" x2="32.5" y2="24" stroke="#3B82F6" stroke-width="2.5" stroke-linecap="round"/>
  
  <!-- Testing elements - small dots representing test cases -->
  <circle cx="8" cy="8" r="1.5" fill="#60A5FA" opacity="0.6"/>
  <circle cx="32" cy="8" r="1.5" fill="#60A5FA" opacity="0.6"/>
  <circle cx="8" cy="32" r="1.5" fill="#60A5FA" opacity="0.6"/>
  
  <!-- Shopping Cart Icon (representing "cart" in QAcart) -->
  <g opacity="0.8">
    <!-- Cart body -->
    <path d="M32 32L34 28L37 28L36 32Z" stroke="#3B82F6" stroke-width="1.5" fill="none" stroke-linejoin="round"/>
    <!-- Cart handle -->
    <path d="M32 32L30 32" stroke="#3B82F6" stroke-width="1.5" stroke-linecap="round"/>
    <!-- Cart wheels -->
    <circle cx="33" cy="35" r="1" fill="#3B82F6"/>
    <circle cx="36" cy="35" r="1" fill="#3B82F6"/>
    <!-- Cart items (small rectangles representing products) -->
    <rect x="33.5" y="29" width="1.5" height="1.5" fill="#60A5FA" opacity="0.7"/>
    <rect x="35" y="29.5" width="1" height="1" fill="#60A5FA" opacity="0.7"/>
  </g>
  
  <!-- Subtle glow effect -->
  <defs>
    <filter id="glow" x="-20%" y="-20%" width="140%" height="140%">
      <feGaussianBlur stdDeviation="1" result="coloredBlur"/>
      <feMerge> 
        <feMergeNode in="coloredBlur"/>
        <feMergeNode in="SourceGraphic"/> 
      </feMerge>
    </filter>
    
    <!-- Gradient for modern look -->
    <linearGradient id="blueGradient" x1="0%" y1="0%" x2="100%" y2="100%">
      <stop offset="0%" style="stop-color:#60A5FA;stop-opacity:1" />
      <stop offset="100%" style="stop-color:#3B82F6;stop-opacity:1" />
    </linearGradient>
  </defs>
  
  <!-- Apply filter to main elements -->
  <style>
    .main-logo {
      filter: url(#glow);
    }
  </style>
</svg>
